<svg width="92" height="87" viewBox="0 0 92 87" fill="none" xmlns="http://www.w3.org/2000/svg">
<g clip-path="url(#clip0_1_6)">
<path d="M21.7222 43.5C33.7191 43.5 43.4444 34.3032 43.4444 22.9583C43.4444 11.6135 33.7191 2.41667 21.7222 2.41667C9.72537 2.41667 0 11.6135 0 22.9583C0 34.3032 9.72537 43.5 21.7222 43.5Z" fill="#FFCC4D"/>
<path d="M70.2778 43.5C82.2746 43.5 92 34.3032 92 22.9583C92 11.6135 82.2746 2.41667 70.2778 2.41667C58.2809 2.41667 48.5555 11.6135 48.5555 22.9583C48.5555 34.3032 58.2809 43.5 70.2778 43.5Z" fill="#FFCC4D"/>
<path d="M35.5529 14.1472C33.9079 12.1406 31.7992 10.5166 29.3882 9.3994C26.9772 8.28225 24.3279 7.70161 21.643 7.70192C16.9625 7.70256 12.4739 9.46112 9.16425 12.5909C5.85463 15.7206 3.995 19.9653 3.99432 24.3914C3.99585 27.5698 4.9579 30.6815 6.76715 33.3601C8.5764 36.0386 11.1575 38.1724 14.2063 39.5101C16.0182 29.3722 24.3851 18.5528 35.5529 14.1472V14.1472ZM70.357 7.70434C67.6721 7.70366 65.0226 8.28415 62.6115 9.40133C60.2005 10.5185 58.0918 12.1427 56.4471 14.1496C67.6123 18.5552 75.9792 29.3746 77.7962 39.5149C81.442 37.9154 84.4008 35.1865 86.1828 31.7799C87.9648 28.3733 88.4632 24.4934 87.5953 20.7824C86.7275 17.0715 84.5455 13.7521 81.4106 11.3738C78.2758 8.99547 74.376 7.70088 70.357 7.70434V7.70434Z" fill="#EA596E"/>
<path d="M86.8889 54.5997C81.7778 30.3243 57.9268 38.8914 46 38.8914C34.0732 38.8914 10.2222 30.3219 5.11112 54.5997C1.80168 70.3177 14.8069 78.474 28.1929 82.1183C32.4096 85.0957 38.8189 87 46 87C53.1811 87 59.5905 85.0957 63.8097 82.1159C77.1931 78.4716 90.1983 70.3177 86.8889 54.5997Z" fill="#FFE8B6"/>
<path d="M78.2 43.5C78.2 70.0833 63.7841 58 46 58C28.2159 58 13.8 70.0833 13.8 43.5C13.8 29.4857 28.2159 12.0833 46 12.0833C63.7841 12.0833 78.2 29.4857 78.2 43.5Z" fill="#FFCC4D"/>
<path d="M53.4239 67.5603C53.4239 71.4367 48.2821 75.661 46 75.661C43.7153 75.661 38.5761 71.4367 38.5761 67.5603C38.5761 63.6816 43.1429 62.8333 46 62.8333C48.8546 62.8333 53.4239 63.6816 53.4239 67.5603Z" fill="#EA596E"/>
<path d="M90.7606 73.2323C77.3567 65.6294 59.1867 67.976 58.4174 68.0775C58.3817 68.0823 58.3587 68.1041 58.3229 68.1089C58.1159 68.1452 57.9319 68.2249 57.7402 68.3047C57.6227 68.3554 57.5026 68.3893 57.3978 68.4545C57.2419 68.5488 57.1243 68.6768 56.994 68.8025C56.8892 68.9016 56.7793 68.9862 56.695 69.0998C56.603 69.2254 56.5519 69.368 56.4854 69.5106C56.4164 69.6604 56.3372 69.803 56.304 69.9673C56.2938 70.006 56.2657 70.035 56.258 70.0761C56.235 70.209 56.2733 70.3298 56.2733 70.4603C56.2708 70.5788 56.2324 70.6899 56.2503 70.8132C56.2554 70.8518 56.281 70.8784 56.2887 70.9147C56.3219 71.0814 56.3934 71.2288 56.4599 71.3811C56.5212 71.5261 56.5723 71.6711 56.6618 71.7992C56.7333 71.9055 56.833 71.9828 56.9199 72.0771C57.0553 72.2173 57.1857 72.3526 57.3492 72.4589C57.4463 72.5218 57.5613 72.558 57.6687 72.6088C57.8578 72.6958 58.0418 72.7779 58.2539 72.819C58.2922 72.8263 58.3203 72.8504 58.3587 72.8577C58.5018 72.8818 72.7618 75.2188 79.7333 84.0058C80.2342 84.6413 81.0009 84.9724 81.7803 84.9724C82.2551 84.9734 82.7207 84.8491 83.1248 84.6135C83.5288 84.3779 83.8554 84.0402 84.0676 83.6387C84.2798 83.2371 84.3692 82.7874 84.3259 82.3404C84.2825 81.8933 84.1081 81.4666 83.8222 81.1082C80.9907 77.5339 77.2468 74.907 73.5361 72.9664C78.3406 73.5513 83.6101 74.8152 88.1309 77.3793C88.4183 77.5433 88.7372 77.652 89.0692 77.6993C89.4012 77.7465 89.7397 77.7313 90.0655 77.6545C90.3912 77.5777 90.6978 77.4409 90.9675 77.2518C91.2371 77.0627 91.4647 76.8252 91.6371 76.5528C92.3629 75.4024 91.9693 73.9186 90.7606 73.2323V73.2323ZM35.3408 71.7919C35.4277 71.6663 35.4762 71.5237 35.5376 71.3835C35.604 71.2288 35.6781 71.0838 35.7113 70.9171C35.719 70.8784 35.7446 70.8494 35.7522 70.8108C35.7701 70.6827 35.7318 70.5618 35.7292 70.4386C35.7292 70.3153 35.765 70.1969 35.742 70.0737C35.7369 70.035 35.7088 70.0084 35.7011 69.9698C35.6628 69.803 35.5861 69.6532 35.512 69.5009C35.4481 69.3632 35.397 69.223 35.3076 69.1022C35.2258 68.9886 35.1159 68.904 35.0137 68.8049C34.8833 68.6768 34.7607 68.5512 34.6048 68.4521C34.5026 68.3917 34.3824 68.3578 34.27 68.3071C34.0834 68.219 33.886 68.1533 33.6822 68.1113C33.6464 68.1041 33.6209 68.0823 33.5851 68.0775C32.8159 67.976 14.6433 65.627 1.242 73.2323C0.943941 73.3905 0.682493 73.6038 0.473131 73.8593C0.263769 74.1148 0.110748 74.4075 0.0231256 74.7199C-0.0644968 75.0324 -0.0849394 75.3583 -0.036992 75.6784C0.0109554 75.9984 0.126318 76.3062 0.302267 76.5833C0.478217 76.8605 0.711176 77.1014 0.987356 77.2919C1.26354 77.4824 1.57732 77.6185 1.91014 77.6923C2.24296 77.7661 2.58804 77.776 2.92497 77.7214C3.26189 77.6668 3.58381 77.5488 3.87166 77.3744C8.38989 74.8103 13.6594 73.5488 18.4613 72.964C14.7532 74.9022 11.0119 77.5315 8.18033 81.1033C7.89444 81.4617 7.72001 81.8885 7.67666 82.3356C7.63331 82.7826 7.72278 83.2322 7.93498 83.6338C8.14718 84.0354 8.4737 84.373 8.87779 84.6087C9.28187 84.8443 9.74748 84.9686 10.2222 84.9676C10.6194 84.968 11.0112 84.8808 11.3665 84.713C11.7218 84.5452 12.0309 84.3014 12.2692 84.0009C19.2127 75.2478 33.5059 72.8746 33.649 72.8528C33.6873 72.8456 33.7129 72.8238 33.7512 72.8142C33.948 72.7755 34.1192 72.6958 34.2981 72.616C34.4208 72.5628 34.5511 72.5218 34.661 72.4493C34.8118 72.3526 34.9268 72.2245 35.0494 72.1013C35.1491 71.9998 35.259 71.9103 35.3408 71.7919V71.7919Z" fill="#C1694F"/>
<path d="M25.5555 48.3333C25.5555 48.3333 25.5555 43.5 30.6667 43.5C35.7778 43.5 35.7778 48.3333 35.7778 48.3333V53.1667C35.7778 53.1667 35.7778 58 30.6667 58C25.5555 58 25.5555 53.1667 25.5555 53.1667V48.3333ZM56.2222 48.3333C56.2222 48.3333 56.2222 43.5 61.3333 43.5C66.4444 43.5 66.4444 48.3333 66.4444 48.3333V53.1667C66.4444 53.1667 66.4444 58 61.3333 58C56.2222 58 56.2222 53.1667 56.2222 53.1667V48.3333Z" fill="#272B2B"/>
</g>
<defs>
<clipPath id="clip0_1_6">
<rect width="92" height="87" fill="white"/>
</clipPath>
</defs>
</svg>
